<svg xmlns="http://www.w3.org/2000/svg" viewBox="0 0 64 64"><rect width="64" height="64" fill="#10161F"/><circle cx="46" cy="19" r="13" fill="#F1D291" opacity="0.22"/><circle cx="46" cy="19" r="9" fill="#E4B454"/><circle cx="44" cy="17" r="4.5" fill="#F1D291"/><circle cx="9" cy="9" r="1" fill="#fff" opacity="0.85"/><circle cx="19" cy="5" r="0.7" fill="#fff" opacity="0.7"/><circle cx="7" cy="22" r="0.7" fill="#fff" opacity="0.7"/><circle cx="27" cy="13" r="0.6" fill="#fff" opacity="0.6"/><polygon points="-2,64 14,64 6,37" fill="#1B3326"/><polygon points="10,64 28,64 19,33" fill="#1B3326"/><polygon points="26,64 42,64 34,38" fill="#1B3326"/><polygon points="40,64 58,64 49,34" fill="#1B3326"/><polygon points="54,64 68,64 61,40" fill="#1B3326"/><polygon points="-4,64 12,64 4,42" fill="#10241A"/><polygon points="8,64 26,64 17,38" fill="#10241A"/><polygon points="22,64 40,64 31,42" fill="#10241A"/><polygon points="36,64 56,64 46,37" fill="#10241A"/><polygon points="52,64 68,64 60,44" fill="#10241A"/></svg>
